<?xml version="1.0" encoding="UTF-8"?>
<!DOCTYPE svg PUBLIC "-//W3C//DTD SVG 1.1//EN" "http://www.w3.org/Graphics/SVG/1.1/DTD/svg11.dtd">
<!-- Creator: CorelDRAW 2018 (64-Bit) -->
<svg xmlns="http://www.w3.org/2000/svg" xml:space="preserve"  version="1.1" style="shape-rendering:geometricPrecision; text-rendering:geometricPrecision; image-rendering:optimizeQuality; fill-rule:evenodd; clip-rule:evenodd"
viewBox="4500 5700 12000 10600"
 xmlns:xlink="http://www.w3.org/1999/xlink">
 <defs>
  <style type="text/css">
   <![CDATA[
    .str0 {stroke:#ffffff;stroke-width:75;stroke-linecap:square;stroke-miterlimit:22.9256}
    .fil1 {fill:#ffffff}
    .fil2 {fill:#3FA6AF}
    .fil0 {fill:#3FA6AF}
   ]]>
  </style>
 </defs>
 <g id="Layer_x0020_1">
  <metadata id="CorelCorpID_0Corel-Layer"/>
  <g id="_2494381647776">
   <path class="fil0 str0" d="M12155.24 14369c-17.09,2.03 -49.62,8.95 -72.41,15.05 -22.77,6.1 -57.35,18.71 -76.46,27.66 -19.52,8.95 -48,25.21 -63.87,35.79 -15.45,10.58 -41.48,32.13 -57.35,48 -15.86,15.46 -38.63,43.52 -50.43,61.42 -11.79,18.3 -28.06,48.8 -36.2,67.93 -8.13,19.12 -18.71,53.68 -23.19,76.87 -7.72,39.05 -8.13,59.39 -6.9,350.21 1.62,296.92 2.03,310.35 10.57,339.63 4.88,17.09 14.24,43.53 20.74,59.39 6.5,15.45 22.37,44.33 35.39,63.45 13.01,19.12 37.01,48 53.29,63.86 16.67,16.27 45.14,38.64 63.04,50.84 17.9,11.79 48.81,28.07 67.92,36.2 19.12,8.14 53.7,19.52 76.87,26.04 38.25,10.17 48,10.97 133.43,10.97 84.59,0 95.58,-0.8 133.81,-11.38 22.79,-6.11 57.35,-17.49 76.47,-25.63 19.53,-8.13 50.03,-24.41 67.93,-36.2 18.3,-12.2 44.34,-32.94 58.57,-46.36 14.23,-13.42 34.57,-36.21 45.56,-50.85 10.57,-14.24 26.02,-39.05 33.76,-54.92 8.13,-15.45 18.71,-40.66 23.59,-55.72 5.28,-15.05 12.6,-44.74 16.27,-65.48 4.87,-28.88 6.5,-73.21 6.5,-177.75l0 -139.11 -403.08 0 0 192.8 139.92 0c0.41,59.8 -2.85,82.57 -8.14,100.88 -6.5,21.14 -14.24,34.56 -29.69,52.05 -14.24,15.46 -30.1,27.26 -47.59,35.4 -14.23,6.91 -36.61,14.64 -49.21,17.08 -12.62,2.84 -42.3,4.88 -65.89,4.88 -23.19,0 -54.92,-2.84 -69.97,-6.51 -15.04,-3.65 -36.6,-11.39 -48,-17.09 -11.79,-5.68 -28.46,-17.89 -37.83,-27.24 -9.35,-9.36 -21.96,-26.84 -28.46,-39.05l-11.8 -21.56c-2.04,-521.86 -1.22,-573.51 4.07,-591.82 3.66,-11.8 13.02,-30.51 21.15,-41.48 8.14,-10.99 24.41,-26.44 36.2,-34.17 12.2,-8.14 34.98,-18.71 50.43,-23.59 15.87,-4.48 45.15,-9.76 65.9,-10.99 25.21,-1.62 48.81,-0.4 74.43,4.48 20.34,4.07 48,12.61 61.02,19.11 13.02,6.92 32.13,21.16 42.71,32.14 11.79,11.79 23.18,29.28 28.88,44.75l9.75 25.61 262.77 -0.4c-4.89,-42.71 -10.58,-69.56 -15.46,-87.86 -4.88,-17.89 -17.49,-49.22 -27.25,-69.56 -10.17,-19.92 -30.51,-51.65 -45.15,-69.95 -15.06,-18.31 -41.9,-45.15 -60.2,-59.79 -17.9,-14.24 -48.4,-34.18 -67.11,-44.35 -19.12,-9.75 -47.18,-22.36 -63.05,-27.64 -15.46,-5.3 -45.15,-13.44 -65.49,-18.31 -23.18,-5.3 -60.6,-8.95 -98.83,-10.17 -33.77,-1.22 -75.26,0 -91.93,2.44zm1013.15 446.21l-0.4 131.78c154.15,0 183.44,-1.63 199.3,-6.51 12.21,-3.25 30.92,-12.2 41.9,-19.12 10.58,-7.32 26.04,-21.56 33.36,-32.13 7.72,-10.57 17.49,-31.73 21.55,-47.59 4.89,-18.71 6.11,-34.98 4.07,-47.99 -1.63,-10.99 -6.92,-27.66 -11.39,-37.43 -4.48,-9.35 -14.65,-23.59 -22.37,-31.31 -7.73,-7.73 -25.22,-19.52 -38.64,-26.44 -24,-12.21 -24,-12.21 -125.28,-13.84l-101.68 -1.21 -0.42 131.79zm2012.09 -43.53l0 87.46c186.7,0 209.47,-1.23 222.49,-6.52 8.95,-4.07 20.34,-10.17 24.81,-14.24 4.48,-4.06 13.02,-17.49 18.72,-29.28 5.69,-12.2 10.17,-28.07 10.17,-35.39 0,-6.92 -2.04,-20.34 -4.48,-29.28 -2.44,-9.36 -10.58,-23.59 -18.31,-32.54 -8.13,-8.95 -20.74,-18.72 -28.46,-21.97 -10.59,-4.47 -41.5,-5.69 -119.59,-5.69l-105.35 0 0 87.45zm-3925.87 12.2c-2.02,6.51 -25.21,100.47 -52.05,209.07 -26.86,108.6 -48.4,198.49 -47.6,200.53 0.82,1.62 48.82,3.25 106.98,3.25 57.76,0 104.94,-1.63 105.34,-3.25 0,-2.04 -22.77,-97.62 -50.43,-212.73 -27.66,-115.11 -52.47,-209.07 -54.91,-209.07 -2.44,0 -5.7,5.28 -7.33,12.2zm3925.87 498.26l0 107.39c231.44,-2.04 239.98,-2.85 256.65,-11.39 9.37,-5.29 24.01,-17.09 31.73,-26.44 8.14,-9.35 17.5,-27.66 21.57,-41.08 4.47,-15.86 5.69,-30.51 3.65,-43.93 -1.63,-10.57 -6.92,-26.43 -10.98,-34.98 -4.47,-8.54 -14.64,-21.56 -22.78,-29.28 -8.13,-7.73 -21.96,-17.09 -30.91,-20.75 -13.42,-5.69 -37.83,-6.91 -132.61,-6.91l-116.32 0 0 107.37zm-4091.81 -886.3c-1.63,5.7 -80.94,297.74 -176.94,649.58l-124.18 452.47 -6.8 -73.38c-507.22,0 -521.46,-0.41 -519.02,-7.73 1.23,-4.06 118.77,-192.39 260.73,-418.13l258.29 -410.82 0 -201.75 -868 0 0 131.38 0 131.38c404.3,0 521.85,0.81 521.85,1.22 0,0.81 -117.14,189.54 -260.72,419.76l-260.73 418.14 -0.4 199.71 868 0 0 -2.12c173.02,1.13 225.84,-0.06 226.98,-1.94 1.22,-2.04 15.86,-50.44 32.94,-107.39l30.5 -103.72 380.72 2.45c28.47,95.17 42.71,142.77 50.43,167.58l13.43 45.14 267.64 0c-4.06,-18.7 -80.54,-303.43 -173.28,-644.29 -92.33,-341.26 -170.01,-628.42 -172.46,-638.59l-4.88 -18.71 -341.66 0 -2.44 9.76zm1781.58 640.64l0 651.19 262.76 0 0 -442.54 111.04 2.04 247.71 438.07c246.5,2.03 298.55,0.81 298.55,-2.04 0,-2.44 -58.97,-107.38 -130.96,-233.47 -71.59,-125.69 -132.61,-232.66 -135.46,-237.54 -4.47,-8.14 -0.8,-11.39 35.39,-34.98 25.63,-16.68 57.36,-43.12 86.64,-72.41 25.22,-25.21 52.06,-56.94 60.2,-70.36 7.73,-13.02 20.74,-39.86 29.29,-58.98 8.13,-19.12 18.3,-51.65 22.77,-72.4 4.89,-23.6 7.72,-56.13 7.72,-89.89 0,-33.76 -2.83,-65.9 -7.72,-89.89 -4.47,-20.34 -13.82,-51.67 -20.74,-69.96 -7.32,-17.9 -21.15,-46.38 -31.32,-63.45 -10.58,-16.69 -34.58,-46.78 -53.69,-67.12 -19.52,-20.34 -50.85,-47.59 -70.37,-60.2 -19.12,-13.01 -48.81,-29.7 -65.49,-37.02 -17.07,-7.72 -48.4,-19.11 -70.37,-25.21l-39.45 -11.8 -536.09 -2.85 -0.41 650.81zm1056.76 0.4l0 650.79 802.09 0 0 -263.16 -538.94 0 0 -267.24 420.59 0 -2.44 -243.23 -418.15 -2.03 0 -263.17 536.51 -2.03 1.22 -260.73 -800.88 0 0 650.8zm955.73 -0.4l0 651.19c566.19,-2.43 572.3,-2.85 606.87,-12.2 19.11,-5.69 51.65,-17.89 72.4,-27.66 20.33,-9.76 48.81,-26.44 63.45,-37.01 14.65,-10.17 39.46,-32.13 55.32,-48.8 15.87,-16.69 36.2,-41.9 45.56,-56.14 9.35,-14.65 23.18,-40.27 30.91,-57.35 7.72,-16.67 18.3,-46.38 23.59,-65.49 4.88,-19.52 10.17,-53.69 11.79,-76.87 1.63,-24.01 0.41,-55.32 -2.44,-74.44 -2.85,-17.89 -8.95,-44.75 -13.42,-58.97 -4.88,-14.65 -16.27,-38.24 -25.62,-52.88 -8.95,-14.24 -28.48,-37.43 -42.71,-51.66 -14.24,-13.83 -40.27,-34.57 -57.76,-45.96 -17.49,-11.39 -31.73,-21.56 -31.73,-22.79 0,-1.21 7.32,-6.9 15.86,-13.01 8.95,-6.1 30.92,-26.84 49.22,-46.36 19.94,-20.75 38.64,-45.97 45.96,-61.42 6.92,-14.24 15.46,-39.86 19.12,-56.55 4.47,-21.14 5.7,-44.33 4.07,-74.43 -1.22,-24.4 -6.5,-59.79 -11.39,-78.9 -5.28,-19.53 -17.08,-50.85 -26.44,-70.38 -9.35,-19.12 -27.66,-48.81 -40.67,-65.48 -13.01,-17.09 -38.24,-43.12 -56.13,-58.17 -19.52,-16.67 -50.03,-36.2 -76.47,-49.22 -23.99,-11.79 -55.72,-24.81 -69.96,-29.28 -23.59,-6.91 -55.73,-7.73 -307.51,-8.95l-281.46 -1.63 -0.41 650.81z"/>
   <path class="fil1" d="M8500 15056.82l0 688.21c427.9,0 538.54,-2.04 560.1,-4.89 18.3,-2.43 55.32,-11.79 82.16,-20.74 26.44,-8.95 63.85,-25.21 82.98,-36.61 19.52,-11.39 48.81,-32.13 65.48,-45.95 16.68,-14.24 42.3,-39.46 56.54,-56.14 14.24,-17.08 33.36,-43.52 42.71,-59.38 9.35,-15.46 23.19,-43.12 30.51,-61.02 7.32,-18.3 17.89,-48.8 22.77,-67.92 8.96,-33.76 9.36,-45.97 10.99,-315.64 0.8,-185.89 0,-290.82 -3.26,-311.16 -2.44,-16.68 -9.76,-47.59 -15.86,-67.93 -6.1,-20.34 -19.94,-54.1 -30.51,-74.44 -10.17,-20.33 -28.47,-50.03 -40.26,-65.89 -11.81,-15.45 -34.18,-40.67 -49.63,-56.13 -15.46,-15.05 -44.74,-39.05 -65.48,-52.47 -20.34,-13.42 -52.88,-31.32 -72,-39.46 -19.53,-7.72 -50.03,-18.29 -67.93,-23.18 -18.3,-4.48 -55.72,-10.58 -83.38,-12.6 -27.65,-2.45 -157.41,-4.48 -287.97,-4.48l-237.96 0 0 687.82zm-779.03 -680.09c-1.22,4.07 -85.01,311.16 -186.3,682.52 -101.28,370.96 -184.25,677.24 -184.25,680.09 0,4.47 37.01,5.69 170.83,5.69 159.04,0 171.24,-0.41 172.86,-7.73 1.23,-4.07 14.24,-49.21 28.89,-99.66 14.64,-50.84 27.66,-95.58 28.46,-99.65 2.05,-7.32 13.02,-7.72 167.59,-6.5l165.14 0.8c35.39,115.52 49.63,163.52 54.5,181.01l9.36 31.73c331.5,0 341.67,-0.41 339.63,-7.73 -0.81,-4.07 -83.79,-310.35 -184.26,-680.48 -100.05,-369.74 -183.03,-676.02 -184.25,-680.09 -1.63,-7.32 -15.05,-7.73 -198.9,-7.73 -183.85,0 -196.87,0.41 -199.3,7.73zm-1305.34 488.5c0,467.36 0.41,498.67 8.13,535.69 4.47,21.55 14.24,55.31 21.97,74.43 7.32,19.53 21.15,48 30.5,63.46 9.77,15.86 28.48,41.89 41.9,58.16 13.42,16.28 40.68,42.71 60.6,58.16 19.94,15.87 52.88,37.43 73.22,48 20.34,10.58 54.91,25.22 76.88,32.14 21.55,7.32 60.2,16.67 85.41,20.74 36.61,6.1 60.6,7.32 120.4,5.29 42.7,-1.63 87.45,-5.7 105.35,-9.77 16.68,-3.66 44.74,-11.79 62.23,-17.89 17.49,-5.7 47.18,-18.31 65.9,-27.66 18.7,-9.36 49.62,-28.88 68.74,-43.12 19.52,-14.23 44.73,-37.01 56.53,-50.03 11.79,-12.6 28.88,-34.16 37.83,-47.58 8.95,-13.02 22.78,-37.03 30.51,-52.48 8.12,-15.86 19.11,-42.3 25.21,-59.39 5.7,-16.67 13.02,-48.4 16.69,-69.95 5.28,-32.95 6.5,-119.58 6.5,-526.74l0 -487.69 -333.13 0c0,888.33 -0.81,956.26 -6.51,976.19 -4.47,15.86 -12.61,28.88 -25.21,41.9 -11.39,11.39 -28.88,22.78 -44.75,29.28 -23.59,9.35 -33.36,10.58 -87.86,10.58 -54.5,0 -64.26,-1.23 -87.44,-10.58 -14.64,-5.69 -32.95,-16.67 -41.09,-23.99 -8.13,-7.32 -19.12,-21.16 -24.4,-30.91 -8.95,-17.49 -8.95,-18.71 -11.39,-503.97l-2.03 -486.47 -330.69 -2.03 0 496.23zm1496.91 -58.98c-1.63,6.51 -24.8,100.47 -51.66,209.07 -26.84,108.6 -48.4,198.9 -47.58,200.53 0.81,1.62 48.8,3.25 106.97,3.25 57.76,0 104.94,-1.63 104.94,-3.25 0.41,-1.63 -22.37,-97.63 -50.03,-212.73 -27.66,-114.7 -52.47,-209.07 -54.91,-209.07 -2.44,0 -5.69,5.29 -7.73,12.2zm920.59 253l0 352.65c193.61,-2.03 195.24,-2.44 216.8,-13.82 12.2,-6.52 28.06,-18.31 35.79,-26.44 7.74,-7.74 18.31,-23.19 24,-34.18l10.58 -19.92c2.03,-464.92 1.22,-506.82 -4.48,-523.49 -3.25,-10.98 -13.01,-28.47 -21.15,-39.46 -9.76,-13.42 -23.18,-23.99 -42.71,-34.16l-28.06 -14.24 -190.77 0.41 0 352.65zm-3040.04 -368.92c-14.64,3.25 -37.02,11.79 -50.04,18.71 -13,6.92 -28.87,19.52 -34.97,28.06 -6.11,8.14 -13.83,21.97 -16.68,30.51 -4.07,11.39 -5.28,87.86 -5.28,291.64l-0.42 276.18c15.87,33.76 27.26,49.63 35.39,56.95 8.14,7.32 26.85,18.3 41.49,23.99 23.19,9.35 32.54,10.58 87.45,10.58 54.51,0 64.26,-1.23 87.45,-10.58 16.27,-6.5 33.76,-17.89 45.15,-29.28 12.61,-13.02 20.74,-26.04 25.22,-41.9 5.69,-19.52 6.51,-64.67 6.51,-285.94 0,-228.59 -0.82,-266.01 -6.92,-287.16 -5.29,-17.9 -12.61,-29.29 -27.66,-43.93 -14.24,-14.24 -28.46,-22.77 -48.8,-29.69 -18.31,-6.52 -42.71,-10.58 -69.97,-11.8 -26.03,-1.22 -51.65,0 -67.92,3.66zm-34.98 -331.9c-21.96,3.65 -53.29,10.17 -70.37,15.05 -16.68,4.47 -42.3,13.42 -56.94,19.11 -14.24,5.7 -39.05,17.9 -54.5,26.84 -15.87,8.95 -39.46,24.01 -52.89,34.18 -13.01,9.75 -34.97,28.87 -47.99,42.7 -13.43,13.43 -34.17,39.46 -46.37,56.95 -12.2,17.89 -29.29,48.4 -37.83,67.52 -8.54,19.52 -20.34,50.83 -26.04,70.37 -9.75,34.56 -9.75,37.41 -11.38,348.17 -1.22,266.01 -0.41,319.3 5.29,351.84 3.66,21.14 13.01,55.72 21.15,76.87 7.73,21.15 24,54.91 35.79,75.25 13.42,22.37 36.61,51.66 59.39,74.84 20.34,20.75 49.21,45.96 63.45,55.32 14.64,9.76 40.26,24.82 56.95,32.94 17.08,8.55 43.11,20.34 58.16,26.04l27.65 10.17 -0.4 239.16 333.13 0 -0.41 -239.16c59.79,-21.97 93.55,-37.43 113.08,-49.22 19.92,-11.39 50.03,-32.14 67.1,-45.96 16.69,-13.84 42.72,-40.68 57.77,-59.8 15.05,-18.71 35.79,-50.84 45.96,-71.18 9.76,-19.92 21.96,-48.4 26.85,-63.05 4.47,-14.22 11.8,-45.95 15.85,-69.95 6.52,-38.65 7.33,-78.91 5.7,-346.15 -1.63,-292.04 -1.63,-303.43 -10.98,-337.59 -4.87,-19.12 -14.64,-48.82 -21.56,-65.49 -6.92,-17.09 -22.37,-46.37 -34.16,-65.89 -12.21,-19.12 -37.83,-50.85 -56.95,-70.77 -19.52,-19.54 -52.07,-46.38 -72.4,-59.8 -20.33,-13.42 -51.25,-30.51 -67.93,-37.83 -16.67,-7.72 -46.37,-18.71 -65.89,-24.41 -19.12,-5.28 -55.72,-13.01 -80.94,-17.07 -25.21,-3.67 -66.71,-6.52 -91.93,-6.52 -25.21,0.41 -63.86,3.26 -85.41,6.52z"/>
   <g>
    <path class="fil1" d="M10910.26 6082.78l947.26 10.9 256.39 348.9 276.87 -160.91 767.84 919.83 1098.58 419.61 955.18 1107.49 -267.62 0 874.9 946.6 -285.8 1607.05 -955.51 1143.17 1437.89 1607.4 -2475.34 11.89 -500.88 -539.87 -99.13 -1.99 -121.58 253.09 -5725.47 69.05c0,0 -1775.23,-247.79 -1801.99,-2096.04 -27.09,-1848.57 1714.44,-2259.26 1919.61,-2259.26 205.51,0 -634.04,-187.66 -634.04,-187.66 0,0 -413.32,-554.75 -383.91,-803.53 16.85,-141.42 98.45,-178.75 98.45,-178.75l-1338.77 -429.19c0,0 883.15,-204.84 1160.03,-195.6 276.87,8.93 1133.92,267.63 1133.92,267.63l491.3 -294.71 2000.24 232.26 1660.91 -875.22 357.16 18.17 -170.82 -358.15 -677.64 -8.27 1.97 -573.89zm1490.43 5054.42l1039.43 -1203.3 498.25 -12.23 267.29 279.86 -73.02 425.22 -625.78 741.4 -370.7 -352.53 -735.47 121.58zm-2774.68 428.86c0,0 208.15,-130.51 346.58,-229.3 289.43,-205.83 451,-187.67 451,-187.67l-404.08 995.17 677.98 744.06 -578.86 53.19 -123.9 145.38 -504.51 16.51 -123.9 115.65 -355.51 -16.52c0,0 389.55,-405.08 513.77,-859.7 123.9,-454.97 101.43,-776.77 101.43,-776.77z"/>
    <path class="fil2" d="M10522.71 10562.64c-278.53,0 -503.85,-225.32 -503.85,-503.85 0,-278.53 225.32,-503.86 503.85,-503.86 278.53,0 503.86,225.33 503.86,503.86 0,278.53 -225.33,503.85 -503.86,503.85z"/>
    <path class="fil1" d="M10522.71 10397.44c-182.71,0 -330.39,-147.68 -330.39,-330.39 0,-182.71 147.68,-330.4 330.39,-330.4 182.71,0 330.4,147.69 330.4,330.4 0,182.71 -147.69,330.39 -330.4,330.39z"/>
    <path class="fil2" d="M9696.06 13105.71l-155.95 191.63 3499.91 -17.84 563.98 599.35 1969.84 -22.47 -1282.94 -1432.28 1045.38 -1214.21 268.29 -1485.79 -1087.68 -1087.67 -1685.36 49.89 -2159.81 2447.25 -425.23 968.73 880.85 980.62 -1431.28 22.79zm2704.63 -1968.51l1039.43 -1203.3 498.25 -12.23 267.29 279.86 -73.02 425.22 -625.78 741.4 -370.7 -352.53 -735.47 121.58z"/>
    <path class="fil1" d="M10835.93 11265.07l2073.58 -2355.07 1511.24 -67.73 963.77 953.53 -260.35 1328.85 -1099.56 1307.71 1068.17 1198.36 -1391.31 15.53 -896.03 -844.17 0 265.98 -1375.46 0 -953.53 -984.92 359.48 -818.07zm1564.76 -127.87l1039.43 -1203.3 498.25 -12.23 267.29 279.86 -73.02 425.22 -625.78 741.4 -370.7 -352.53 -735.47 121.58z"/>
    <path class="fil2" d="M9305.2 10784.01c0,0 -536.24,-1161.35 -1822.49,-1143.51 -1224.45,17.18 -2028.31,1076.77 -2023.68,2041.53 4.62,964.76 835.24,1983.39 1983.38,1974.46 1148.13,-8.92 5213.02,-71.69 5213.02,-71.69l156.28 -214.43 -4431.3 53.85c0,0 868.95,-485.35 1013.99,-1268.73 102.75,-553.74 58.15,-710.35 58.15,-710.35l701.43 -446.7 357.17 -4.3 205.5 -205.5 -571.58 -4.63 -710.36 442.4 -129.51 -442.4z"/>
    <polygon class="fil1" points="6909.48,13350.87 7331.06,13412.66 7377.32,13259.36 7606.62,13269.6 7637.68,13436.45 8023.58,13358.15 8031.51,13191.29 8224.13,13126.21 8297.15,13256.71 8654.3,12985.45 8597.15,12831.82 8729.97,12711.88 8876.01,12797.79 9094.73,12459.13 8969.84,12318.38 9047.81,12143.6 9191.21,12154.17 9251.33,11760.34 9087.13,11700.54 9078.54,11488.75 9232.84,11445.14 9167.75,11077.73 9000.9,11067.16 8930.52,10884.78 9047.81,10770.14 8862.79,10504.16 8706.51,10517.05 8584.6,10393.48 8612.67,10248.76 8315.65,10042.93 8242.63,10147.01 8001.11,10029.38 8013.67,9917.71 7618.51,9837.75 7580.52,9951.41 7345.93,9951.41 7307.94,9837.75 6907.82,9933.56 6941.52,10049.87 6711.24,10146.01 6628.63,10034.34 6284.36,10295.69 6338.22,10420.9 6206.06,10566.94 6086.46,10494.91 5875.33,10836.21 5987.33,10945.9 5895.81,11129.61 5742.51,11133.24 5683.37,11513.53 5834.03,11551.53 5834.03,11766.61 5689.97,11828.73 5771.26,12222.9 5922.91,12237.43 5980.06,12404.29 5894.16,12487.55 6071.26,12795.14 6219.94,12750.87 6370.93,12884.02 6303.2,13016.85 6627.98,13220.7 6725.45,13120.92 6923.68,13178.4 "/>
    <path class="fil2" d="M7466.53 12793.17c-630.4,0 -1139.87,-517.08 -1139.87,-1156.73 0,-639.65 509.47,-1156.72 1139.87,-1156.72 630.4,0 1139.87,517.07 1139.87,1156.72 0,639.65 -509.47,1156.73 -1139.87,1156.73z"/>
    <path class="fil1" d="M6565.53 11784.13c0,0 -4.63,106.72 43.61,215.09 51.21,114.98 102.75,170.82 102.75,170.82l435.14 -297.03 84.92 107.37 -348.57 418.94c0,0 42.61,48.25 199.55,106.73 132.16,49.23 225.01,57.48 225.01,57.48l73.01 -549.78 152.98 -2.31 56.5 549.79c0,0 129.84,-16.52 225,-61.46 118.94,-55.84 175.77,-122.25 175.77,-122.25l-316.52 -421.92 103.41 -109.69 422.91 355.51c0,0 69.72,-76.65 114.98,-202.2 35.36,-97.47 46.59,-225 46.59,-225l-543.17 -60.47 -1.99 -132.48 538.22 -60.47c0,0 0,-130.51 -23.13,-212.78 -39.98,-142.4 -105.4,-208.81 -105.4,-208.81l-442.73 335.03 -99.44 -109.69 345.59 -426.22c0,0 -68.39,-78.97 -204.85,-130.18 -137.11,-51.54 -230.29,-55.84 -230.29,-55.84l-57.16 554.41 -145.04 -1.97 -43.95 -554.75c0,0 -117.28,16.52 -223.01,60.14 -109.69,45.26 -199.56,128.19 -199.56,128.19l352.87 417.95 -99.46 95.16 -434.47 -303.97c0,0 -64.1,68.07 -103.41,180.07 -49.57,111.68 -55.84,218.73 -55.84,218.73l527.64 66.74 1.98 146.69 -550.44 64.43z"/>
    <path class="fil2" d="M11315.34 11755.05l599 656.5 484.7 -31.39 -197.91 -411.68 57.17 -385.57 739.75 -135.46 526.33 500.22 974.34 -1130.62 130.18 -734.47 -552.1 -563 -833.59 15.86 -1927.87 2219.61zm1085.35 -617.85l1039.43 -1203.3 498.25 -12.23 267.29 279.86 -73.02 425.22 -625.78 741.4 -370.7 -352.53 -735.47 121.58z"/>
    <path class="fil1" d="M11596.5 11755.05l416.97 442.73 57.16 -781.39 995.15 -198.24 432.5 406.39 797.25 -869.93 135.46 -625.44 -421.92 -421.92 -661.79 31.38 -1750.78 2016.42zm804.19 -617.85l1039.43 -1203.3 498.25 -12.23 267.29 279.86 -73.02 425.22 -625.78 741.4 -370.7 -352.53 -735.47 121.58z"/>
    <polygon class="fil2" points="5852.21,7969.02 6092.07,7861.31 7307.6,8134.22 7753.98,7869.57 9853.98,8035.1 11425.03,7208.11 12706.64,7299.31 12351.14,6819.56 12197.5,6904.14 12284.39,7094.79 12047.83,7097.1 11697.93,6501.06 11106.85,6488.83 11104.21,6276.72 11792.11,6288.61 12081.86,6715.82 12337.59,6546.98 12990.45,7355.47 14142.88,7779.71 14692.67,8414.39 12841.45,7907.24 11756.42,9602.18 11866.44,8616.6 11528.77,8561.09 9679.2,9785.55 9741.65,10483.68 9286.69,10776.09 9183.94,10599.98 9533.16,10405.38 9533.16,10296.01 9189.55,9837.43 6683.15,9071.56 6406.94,8519.46 6907.17,8394.24 8558.82,8832.02 9481.3,9952.07 9486.25,9722.77 8684.04,8670.45 "/>
    <polygon class="fil1" points="7631.39,8201.62 9851.02,8712.08 10726.57,8019.24 10778.44,7784.66 9840.77,8253.49 7813.78,8066.15 "/>
    <polygon class="fil1" points="7016.53,8628.82 6891.64,8920.57 8819.5,9498.76 8439.22,9009.11 "/>
    <path class="fil1" d="M12055.1 8795.34l687.89 -1104.51c0,0 1359.91,479.4 1401.54,375.32 41.63,-104.4 -1386.01,-583.8 -1386.01,-583.8l-489.66 328.41 -213.76 984.58z"/>
    <polygon class="fil1" points="8965.21,8738.18 9616.76,9556.25 11502.67,8310.98 11919.64,8388.96 12086.49,7732.46 12357.41,7492.91 11523.49,7404.37 11054.66,7654.48 10913.9,8102.5 9908.5,8930.81 "/>
    <polygon class="fil2" points="10814.78,9204.05 10818.09,9421.45 11562.48,9578.39 11558.51,9355.04 "/>
    <path class="fil1" d="M6739.65 8778.49c-45.6,0 -82.6,-37 -82.6,-82.59 0,-45.6 37,-82.61 82.6,-82.61 45.6,0 82.6,37.01 82.6,82.61 0,45.59 -37,82.59 -82.6,82.59z"/>
   </g>
  </g>
 </g>
</svg>
